HIERARCHY
ROOT hip
{
	OFFSET 0.000000 0.000000 0.000000 
	CHANNELS 6 Xposition Yposition Zposition Xrotation Zrotation Yrotation
	JOINT abdomen
	{
		OFFSET 0.000000 3.402643 0.000000 
		CHANNELS 3 Xrotation Zrotation Yrotation
		JOINT chest
		{
			OFFSET 0.000000 8.438565 -0.680529 
			CHANNELS 3 Xrotation Zrotation Yrotation
			JOINT neck
			{
				OFFSET 0.000000 10.207942 -0.272212 
				CHANNELS 3 Xrotation Zrotation Yrotation
				JOINT head
				{
					OFFSET 0.000000 3.130431 0.000000 
					CHANNELS 3 Xrotation Zrotation Yrotation
					End Site
					{
						OFFSET 0.000000 3.130435 0.000000 
					}
				}
			}
			JOINT lCollar
			{
				OFFSET 3.470700 6.669187 -0.816635 
				CHANNELS 3 Yrotation Zrotation Xrotation
				JOINT lShldr
				{
					OFFSET 3.198488 0.000000 0.000000 
					CHANNELS 3 Zrotation Yrotation Xrotation
					JOINT lForeArm
					{
						OFFSET 10.139888 0.000000 0.000000 
						CHANNELS 3 Yrotation Zrotation Xrotation
						JOINT lHand
						{
							OFFSET 8.370511 0.000000 0.000000 
							CHANNELS 3 Zrotation Yrotation Xrotation
							End Site
							{
								OFFSET 4.083176 0.000000 0.000000 
							}
						}
					}
				}
			}
			JOINT rCollar
			{
				OFFSET -3.470700 6.669187 -0.816635 
				CHANNELS 3 Yrotation Zrotation Xrotation
				JOINT rShldr
				{
					OFFSET -3.198488 0.000000 0.000000 
					CHANNELS 3 Zrotation Yrotation Xrotation
					JOINT rForeArm
					{
						OFFSET -10.139888 0.000000 0.000000 
						CHANNELS 3 Yrotation Zrotation Xrotation
						JOINT rHand
						{
							OFFSET -8.370511 0.000000 0.000000 
							CHANNELS 3 Zrotation Yrotation Xrotation
							End Site
							{
								OFFSET -4.083176 0.000000 0.000000 
							}
						}
					}
				}
			}
		}
	}
	JOINT lThigh
	{
		OFFSET 5.308129 -1.633274 1.361059 
		CHANNELS 3 Xrotation Zrotation Yrotation
		JOINT lShin
		{
			OFFSET -2.041588 -20.007561 0.000000 
			CHANNELS 3 Xrotation Zrotation Yrotation
			JOINT lFoot
			{
				OFFSET 0.000000 -19.190928 -1.224953 
				CHANNELS 3 Xrotation Yrotation Zrotation
				End Site
				{
					OFFSET 0.000000 -2.449906 4.627600 
				}
			}
		}
	}
	JOINT rThigh
	{
		OFFSET -5.308129 -1.633274 1.361059 
		CHANNELS 3 Xrotation Zrotation Yrotation
		JOINT rShin
		{
			OFFSET 2.041588 -20.007561 0.000000 
			CHANNELS 3 Xrotation Zrotation Yrotation
			JOINT rFoot
			{
				OFFSET 0.000000 -19.190928 -1.224953 
				CHANNELS 3 Xrotation Yrotation Zrotation
				End Site
				{
					OFFSET 0.000000 -2.449906 4.627600 
				}
			}
		}
	}
}
MOTION
Frames: 10
Frame Time: 0.033333
1.145248 37.451832 0.685224 0.000000 0.000000 -100.312500 0.000000 0.000000 0.000000 20.725676 -0.537101 -0.322343 -27.865618 7.301010 -32.027878 5.588009 2.050767 -0.214706 -2.812533 -0.096698 -0.019508 -62.009983 -14.474090 -20.385063 -0.687263 -5.954307 6.037358 3.391611 -0.853931 -6.153819 2.792995 0.077173 -0.019521 34.040001 19.771000 -75.889008 82.067505 1.704610 4.124153 -2.073476 1.514686 -5.401798 -27.251606 18.756838 0.901568 49.623539 -2.552070 -3.112435 -23.689594 -0.358431 -12.831969 -31.713497 -20.740801 18.995073 48.003651 2.795220 3.825373 -14.414831 0.074084 25.393145 
1.145248 37.413052 0.685224 0.000000 0.000000 -100.312500 0.000000 0.000000 0.000000 20.725676 -0.537101 -0.322343 -27.865618 7.301010 -32.027878 5.588009 2.050767 -0.214706 -2.812533 -0.096698 -0.019508 -62.106903 -14.490824 -20.351782 -0.687263 -5.954307 6.037358 3.391611 -0.853931 -6.153819 2.792995 0.077173 -0.019521 34.242313 19.739872 -75.852577 81.373909 1.700255 4.115026 -2.110286 1.961274 -5.405890 -27.292692 18.729048 0.707878 49.962093 -2.637859 -3.184629 -23.896122 -0.205207 -12.722476 -31.713497 -20.740801 18.995073 48.170238 2.795263 3.827925 -14.560505 -0.030389 25.362900 
1.145248 37.374271 0.685224 0.000000 0.000000 -100.312500 0.000000 0.000000 0.000000 20.725676 -0.537101 -0.322343 -27.865618 7.301010 -32.027878 5.588009 2.050767 -0.214706 -2.812533 -0.096698 -0.019508 -62.194386 -14.504094 -20.320946 -0.687263 -5.954307 6.037358 3.391611 -0.853931 -6.153819 2.792995 0.077173 -0.019521 34.449871 19.712402 -75.808937 80.670357 1.724765 4.116027 -2.156220 2.395647 -5.388058 -27.340456 18.689262 0.524518 50.311359 -2.725908 -3.229751 -24.099270 -0.092057 -12.660089 -31.713497 -20.740801 18.995073 48.346306 2.785461 3.846371 -14.730237 -0.148197 25.338667 
1.145248 37.332260 0.685224 0.000000 0.000000 -100.312500 0.000000 0.000000 0.000000 20.725676 -0.537101 -0.322343 -27.865618 7.301010 -32.027878 5.588009 2.050767 -0.214706 -2.812533 -0.096698 -0.019508 -62.281887 -14.517309 -20.290121 -0.687263 -5.954307 6.037358 3.391611 -0.853931 -6.153819 2.792995 0.077173 -0.019521 34.559006 19.652460 -75.765175 79.966835 1.739138 4.116970 -2.205187 2.926927 -5.395459 -27.440540 18.700680 0.523154 50.574959 -2.725969 -3.259024 -24.276194 -0.020250 -12.747310 -31.713497 -20.740801 18.995073 48.521912 2.795151 3.863435 -15.036079 -0.267171 25.401554 
1.145248 37.290253 0.685224 0.000000 0.000000 -100.312500 0.000000 0.000000 0.000000 20.725676 -0.537101 -0.322343 -27.865618 7.301010 -32.027878 5.588009 2.050767 -0.214706 -2.812533 -0.096698 -0.019508 -62.369400 -14.530468 -20.259296 -0.687263 -5.954307 6.037358 3.391611 -0.853931 -6.153819 2.792995 0.077173 -0.019521 34.667999 19.592344 -75.718292 79.253464 1.762826 4.118263 -2.248242 3.452963 -5.398956 -27.544392 18.707979 0.510405 50.848621 -2.718271 -3.285567 -24.452400 0.042428 -12.828966 -31.713497 -20.740801 18.995073 48.698265 2.795214 3.866763 -15.344620 -0.367474 25.495100 
1.145248 37.251472 0.685225 0.000000 0.000000 -100.312500 0.000000 0.000000 0.000000 20.725676 -0.537101 -0.322343 -27.865618 7.301010 -32.027878 5.588009 2.050767 -0.214706 -2.812533 -0.096698 -0.019508 -62.456936 -14.543568 -20.228483 -0.687263 -5.954307 6.037358 3.391611 -0.853931 -6.153819 2.792995 0.077173 -0.019521 34.869621 19.560141 -75.686401 78.559761 1.766772 4.118650 -2.297553 3.969529 -5.409766 -27.766626 18.696692 0.401958 51.193607 -2.699026 -3.244745 -24.527876 -0.043819 -12.774428 -31.713497 -20.740803 18.995071 48.896629 2.795347 3.804381 -15.603023 -0.398611 25.402222 
1.145248 37.212692 0.685225 0.000000 0.000000 -100.312500 0.000000 0.000000 0.000000 20.725676 -0.537101 -0.322343 -27.865618 7.301010 -32.027878 5.588009 2.050767 -0.214706 -2.812533 -0.096698 -0.019508 -62.555546 -14.555806 -20.203918 -0.687263 -5.954307 6.037358 3.391611 -0.853931 -6.153819 2.792995 0.077173 -0.019521 35.085327 19.529362 -75.645355 77.846352 1.789711 4.119798 -2.347225 4.500239 -5.408735 -28.005699 18.680279 0.275701 51.559536 -2.689276 -3.160871 -24.595560 -0.164556 -12.742212 -31.713497 -20.740803 18.995071 49.047577 2.785241 3.704459 -15.817770 -0.373225 25.302845 
1.145248 37.167450 0.685225 0.000000 0.000000 -100.312500 0.000000 0.000000 0.000000 20.725676 -0.537101 -0.322343 -27.865618 7.301010 -32.027878 5.588009 2.050767 -0.214706 -2.812533 -0.096698 -0.019508 -62.626259 -14.663489 -20.182341 -0.687263 -5.954307 6.037358 3.391611 -0.853931 -6.153819 2.792995 0.077173 -0.019521 35.191910 19.469633 -75.543594 77.064522 1.811604 4.114004 -2.403158 5.021457 -5.415579 -28.093443 18.680155 0.442875 51.813126 -2.532948 -3.272069 -24.796721 -0.026022 -12.787284 -31.713497 -20.740803 18.995071 49.229843 2.785247 3.814872 -15.964767 -0.531338 25.340710 
1.145248 37.122204 0.685225 0.000000 0.000000 -100.312500 0.000000 0.000000 0.000000 20.725676 -0.537101 -0.322343 -27.865618 7.301010 -32.027878 5.588009 2.050767 -0.214706 -2.812533 -0.096698 -0.019508 -62.698185 -14.762446 -20.153713 -0.687263 -5.954307 6.037358 3.391611 -0.853931 -6.153819 2.792995 0.077173 -0.019521 35.307171 19.407434 -75.443382 76.263321 1.813313 4.118701 -2.467125 5.546571 -5.415297 -28.193180 18.681648 0.599491 52.086075 -2.390438 -3.370917 -24.977060 0.103901 -12.825214 -31.713497 -20.740803 18.995071 49.402321 2.785360 3.924194 -16.107216 -0.677194 25.373045 
1.145248 37.080196 0.685225 0.000000 0.000000 -100.312500 0.000000 0.000000 0.000000 20.725676 -0.537101 -0.322343 -27.865618 7.301010 -32.027878 5.588009 2.050767 -0.214706 -2.812533 -0.096698 -0.019508 -62.698185 -14.762446 -20.153713 -0.687263 -5.954307 6.037358 3.391611 -0.853931 -6.153819 2.792995 0.077173 -0.019521 35.479214 19.456530 -75.403976 75.569275 1.845014 4.108975 -2.507614 6.073647 -5.413946 -28.295652 18.688095 0.596283 52.421555 -2.376718 -3.311003 -25.043127 0.035608 -12.861345 -31.713497 -20.740803 18.995071 49.585289 2.785387 4.015300 -16.399380 -0.921085 25.255699 
